[center][img]http://img508.imageshack.us/img508/7425/51jjqvvuyrl.jpg[/img]



[img]http://leetleech.org/images/48874973695367351744.png[/img]


Format                           : AVI
Format/Info                      : Audio Video Interleave
File size                        : 1.40 GiB
Duration                         : 1h 18mn
Overall bit rate                 : 2 538 Kbps
Writing application              : VirtualDubMod 1.5.10.3 | www.virtualdub-fr.org || (build 2550/release)
Writing library                  : VirtualDubMod build 2550/release

Video
ID                               : 0
Format                           : MPEG-4 Visual
Format profile                   : Advanced Simple@L5
Format settings, BVOP            : Yes
Format settings, QPel            : Yes
Format settings, GMC             : No warppoints
Format settings, Matrix          : Default (H.263)
Muxing mode                      : Packed bitstream
Codec ID                         : XVID
Codec ID/Hint                    : XviD
Duration                         : 1h 18mn
Bit rate                         : 2 145 Kbps
Width                            : 720 pixels
Height                           : 384 pixels
Display aspect ratio             : 1.875
Frame rate                       : 23.976 fps
Color space                      : YUV
Chroma subsampling               : 4:2:0
Bit depth                        : 8 bits
Scan type                        : Progressive
Bits/(Pixel*Frame)               : 0.324
Stream size                      : 1.18 GiB (85%)
Writing library                  : XviD 1.2.1 (UTC 2008-12-04)

Audio
ID                               : 1
Format                           : AC-3
Format/Info                      : Audio Coding 3
Mode extension                   : CM (complete main)
Codec ID                         : 2000
Duration                         : 1h 18mn
Bit rate mode                    : Constant
Bit rate                         : 384 Kbps
Channel(s)                       : 6 channels
Channel positions                : Front: L C R, Side: L R, LFE
Sampling rate                    : 48.0 KHz
Bit depth                        : 16 bits
Stream size                      : 216 MiB (15%)
Alignment                        : Split accross interleaves
Interleave, duration             : 42 ms (1.00 video frame)
Interleave, preload duration     : 500 ms




[url]http://www.imdb.com/title/tt0377981/[/url]




[IMG]http://leetleech.org/images/89524873606771859129.png[/IMG]


Storyline

Garden gnomes Gnomeo (voice of McAvoy) and Juliet (voice of Blunt) have as many obstacles to overcome as their quasi namesakes when they are caught up in a feud between neighbors. But with plastic pink flamingos and lawnmower races in the mix, can this young couple find lasting happiness?



[img]http://leetleech.org/images/95521316153253938506.png[/img]




[img]http://img688.imageshack.us/img688/9407/vlcsnap2011050618h20m34.png[/img]

[img]http://img717.imageshack.us/img717/6981/vlcsnap2011050618h21m03.png[/img]

[img]http://img219.imageshack.us/img219/1907/vlcsnap2011050618h20m55.png[/img]



Source 

x264 bluray ..............Thanks 



Greetz to Imagine ,Flawl3ss,DiLLoN,BDK,NOiR,TOXiCiNK,THC,Ez,Rx,Boobyblue,TaRiQ786,LKRG





[img]http://img411.imageshack.us/img411/6898/sig1n.jpg[/img]












[/center]